<svg xmlns="http://www.w3.org/2000/svg" viewBox="0 0 675 170" role="img" aria-label="BuyFlow"><defs><linearGradient id="m" x1="0" y1="0" x2="190" y2="170" gradientUnits="userSpaceOnUse"><stop offset="0" stop-color="#ff2f68"/><stop offset=".55" stop-color="#ff2f68"/><stop offset="1" stop-color="#ff9f2f"/></linearGradient><linearGradient id="t" x1="420" y1="50" x2="675" y2="125" gradientUnits="userSpaceOnUse"><stop offset="0" stop-color="#ff2f68"/><stop offset=".45" stop-color="#ff4c48"/><stop offset="1" stop-color="#ff9f2f"/></linearGradient></defs><path d="M154,102 L150,94 L147,91 L142,97 L128,107 L111,113 L105,114 L48,114 L36,117 L22,125 L10,139 L4,152 L0,167 L1,169 L5,162 L14,157 L119,157 L130,154 L140,148 L148,140 L153,131 L156,120 L156,111 Z M7,134 L12,126 L22,116 L32,109 L41,105 L54,101 L63,100 L108,100 L121,96 L134,88 L146,74 L150,66 L153,56 L154,48 L153,37 L151,30 L143,16 L136,9 L130,5 L117,0 L19,0 L20,9 L28,25 L39,36 L50,42 L61,45 L104,45 L102,37 L103,33 L129,52 L106,69 L101,71 L103,59 L53,59 L39,62 L26,69 L16,79 L8,96 L7,102 Z" fill="url(#m)" fill-rule="evenodd"/><path d="M419,64 L405,64 L391,102 L387,110 L385,108 L368,64 L354,64 L358,76 L380,125 L379,131 L376,137 L370,142 L361,142 L360,153 L375,153 L381,150 L386,145 L405,101 Z M286,64 L286,108 L289,117 L295,123 L306,127 L317,126 L323,123 L328,117 L331,117 L330,125 L344,125 L344,64 L330,64 L330,102 L328,107 L321,114 L318,115 L309,115 L301,109 L299,104 L299,64 Z M245,39 L246,52 L251,53 L256,58 L257,65 L255,70 L251,74 L245,75 L245,87 L249,87 L254,89 L260,96 L260,105 L259,107 L251,113 L245,113 L245,125 L254,125 L267,119 L272,113 L274,108 L275,100 L271,89 L267,85 L261,82 L259,79 L264,77 L269,71 L271,65 L271,59 L269,52 L262,44 L253,40 Z" fill="#fff" fill-rule="evenodd"/><path d="M579,64 L593,104 L595,114 L599,125 L613,125 L614,119 L626,83 L628,86 L628,90 L630,93 L633,106 L640,126 L653,125 L674,64 L660,64 L653,89 L646,108 L644,105 L643,97 L632,64 L620,65 L608,105 L606,107 L593,64 Z M353,65 L354,63 L369,64 Z M299,63 L285,64 L285,108 L286,111 L285,108 L286,63 Z M534,64 L528,67 L520,75 L516,82 L514,91 L514,98 L516,107 L521,116 L526,121 L531,124 L536,125 L538,127 L540,126 L552,127 L560,125 L567,121 L572,116 L577,108 L579,101 L579,89 L577,81 L573,74 L568,69 L557,63 L541,62 Z M543,74 L550,74 L556,76 L563,83 L566,92 L565,102 L563,104 L563,106 L557,112 L550,115 L543,115 L536,112 L531,107 L528,100 L528,89 L531,82 L535,78 Z M493,39 L494,126 L507,125 L507,39 Z M484,39 L430,39 L430,126 L444,125 L445,90 L480,90 L479,77 L444,77 L445,52 L484,52 Z" fill="url(#t)" fill-rule="evenodd"/></svg>