<svg xmlns="http://www.w3.org/2000/svg" viewBox="0 0 156 169" role="img" aria-label="BuyFlow"><defs><linearGradient id="m" x1="0" y1="0" x2="156" y2="169" gradientUnits="userSpaceOnUse"><stop offset="0" stop-color="#ff2f68"/><stop offset="0.55" stop-color="#ff2f68"/><stop offset="1" stop-color="#ff9f2f"/></linearGradient></defs><path d="M154,102 L150,94 L147,91 L142,97 L128,107 L111,113 L105,114 L48,114 L36,117 L22,125 L10,139 L4,152 L0,167 L1,169 L5,162 L14,157 L119,157 L130,154 L140,148 L148,140 L153,131 L156,120 L156,111 Z M7,134 L12,126 L22,116 L32,109 L41,105 L54,101 L63,100 L108,100 L121,96 L134,88 L146,74 L150,66 L153,56 L154,48 L153,37 L151,30 L143,16 L136,9 L130,5 L117,0 L19,0 L20,9 L28,25 L39,36 L50,42 L61,45 L104,45 L102,37 L103,33 L129,52 L106,69 L101,71 L103,59 L53,59 L39,62 L26,69 L16,79 L8,96 L7,102 Z" fill="url(#m)" fill-rule="evenodd"/></svg>